<svg xmlns="http://www.w3.org/2000/svg" xmlns:xlink="http://www.w3.org/1999/xlink" version="1.1" width="1000" height="1000" viewBox="0 0 1000 1000" xml:space="preserve">
<desc>Created with Fabric.js 3.5.0</desc>
<defs>
</defs>
<rect x="0" y="0" width="100%" height="100%" fill="#ffffff"/>
<g transform="matrix(1 0 0 1 477.3834 519.0476)" style="" id="70620">
		
<path xml:space="preserve" font-family="Lato" font-size="108" font-style="normal" font-weight="bold" style="stroke: none; stroke-width: 1; stroke-dasharray: none; stroke-linecap: butt; stroke-dashoffset: 0; stroke-linejoin: miter; stroke-miterlimit: 4; is-custom-font: none; font-file-url: none; fill: rgb(0,0,0); fill-rule: nonzero; opacity: 1; white-space: pre;" d="M-418.91 1.53L-418.91 1.53Q-417.99 3.26-417.21 5.12Q-416.43 6.98-415.67 8.87L-415.67 8.87Q-414.92 6.93-414.11 5.04Q-413.30 3.15-412.38 1.42L-412.38 1.42L-389.27-41.83Q-388.83-42.64-388.38-43.13Q-387.92-43.62-387.35-43.83Q-386.78-44.05-386.08-44.10Q-385.38-44.16-384.41-44.16L-384.41-44.16L-373.44-44.16L-373.44 33.93L-386.24 33.93L-386.24-16.51Q-386.24-17.91-386.16-19.59Q-386.08-21.26-385.92-22.99L-385.92-22.99L-409.52 21.29Q-410.33 22.80-411.62 23.64Q-412.92 24.48-414.65 24.48L-414.65 24.48L-416.64 24.48Q-418.37 24.48-419.67 23.64Q-420.96 22.80-421.77 21.29L-421.77 21.29L-445.70-23.15Q-445.48-21.37-445.40-19.67Q-445.32-17.97-445.32-16.51L-445.32-16.51L-445.32 33.93L-458.12 33.93L-458.12-44.16L-447.15-44.16Q-446.18-44.16-445.48-44.10Q-444.78-44.05-444.21-43.83Q-443.64-43.62-443.16-43.13Q-442.67-42.64-442.24-41.83L-442.24-41.83L-418.91 1.53ZM-318.47 1.53L-318.47 1.53Q-317.55 3.26-316.77 5.12Q-315.99 6.98-315.23 8.87L-315.23 8.87Q-314.48 6.93-313.67 5.04Q-312.86 3.15-311.94 1.42L-311.94 1.42L-288.83-41.83Q-288.39-42.64-287.94-43.13Q-287.48-43.62-286.91-43.83Q-286.34-44.05-285.64-44.10Q-284.94-44.16-283.97-44.16L-283.97-44.16L-273.00-44.16L-273.00 33.93L-285.80 33.93L-285.80-16.51Q-285.80-17.91-285.72-19.59Q-285.64-21.26-285.48-22.99L-285.48-22.99L-309.08 21.29Q-309.89 22.80-311.18 23.64Q-312.48 24.48-314.21 24.48L-314.21 24.48L-316.20 24.48Q-317.93 24.48-319.23 23.64Q-320.52 22.80-321.33 21.29L-321.33 21.29L-345.26-23.15Q-345.04-21.37-344.96-19.67Q-344.88-17.97-344.88-16.51L-344.88-16.51L-344.88 33.93L-357.68 33.93L-357.68-44.16L-346.71-44.16Q-345.74-44.16-345.04-44.10Q-344.34-44.05-343.77-43.83Q-343.20-43.62-342.72-43.13Q-342.23-42.64-341.80-41.83L-341.80-41.83L-318.47 1.53Z"/><path xml:space="preserve" font-family="Lato" font-size="108" font-style="normal" font-weight="bold" style="stroke: none; stroke-width: 1; stroke-dasharray: none; stroke-linecap: butt; stroke-dashoffset: 0; stroke-linejoin: miter; stroke-miterlimit: 4; is-custom-font: none; font-file-url: none; fill: rgb(32,18,187); fill-rule: nonzero; opacity: 1; white-space: pre;" d="M-197.16 15.51L-197.16 15.51Q-195.97 15.51-195.11 16.43L-195.11 16.43L-189.38 22.64Q-194.14 28.53-201.07 31.66Q-208.01 34.79-217.73 34.79L-217.73 34.79Q-226.43 34.79-233.37 31.82Q-240.31 28.85-245.22 23.56Q-250.13 18.27-252.75 10.92Q-255.37 3.58-255.37-5.11L-255.37-5.11Q-255.37-13.92-252.46-21.23Q-249.54-28.55-244.25-33.84Q-238.96-39.13-231.58-42.08Q-224.21-45.02-215.30-45.02L-215.30-45.02Q-206.61-45.02-200.10-42.24Q-193.60-39.46-188.95-34.87L-188.95-34.87L-193.81-28.12Q-194.24-27.47-194.92-26.98Q-195.59-26.50-196.78-26.50L-196.78-26.50Q-198.02-26.50-199.32-27.47Q-200.62-28.44-202.61-29.58Q-204.61-30.71-207.66-31.68Q-210.71-32.65-215.41-32.65L-215.41-32.65Q-220.92-32.65-225.54-30.74Q-230.15-28.82-233.47-25.26Q-236.80-21.69-238.66-16.59Q-240.52-11.49-240.52-5.11L-240.52-5.11Q-240.52 1.47-238.66 6.60Q-236.80 11.73-233.61 15.24Q-230.42 18.75-226.10 20.62Q-221.78 22.48-216.82 22.48L-216.82 22.48Q-213.85 22.48-211.44 22.16Q-209.04 21.83-207.01 21.13Q-204.99 20.43-203.18 19.32Q-201.37 18.21-199.59 16.59L-199.59 16.59Q-199.05 16.11-198.46 15.81Q-197.86 15.51-197.16 15.51ZM-103.52-5.11L-103.52-5.11Q-103.52 3.47-106.39 10.79Q-109.25 18.11-114.43 23.45Q-119.62 28.80-126.91 31.79Q-134.20 34.79-143.05 34.79L-143.05 34.79Q-151.91 34.79-159.22 31.79Q-166.54 28.80-171.75 23.45Q-176.96 18.11-179.83 10.79Q-182.69 3.47-182.69-5.11L-182.69-5.11Q-182.69-13.70-179.83-21.02Q-176.96-28.33-171.75-33.68Q-166.54-39.03-159.22-42.02Q-151.91-45.02-143.05-45.02L-143.05-45.02Q-134.20-45.02-126.91-42.00Q-119.62-38.97-114.43-33.65Q-109.25-28.33-106.39-21.02Q-103.52-13.70-103.52-5.11ZM-118.43-5.11L-118.43-5.11Q-118.43-11.54-120.13-16.64Q-121.83-21.75-125.02-25.31Q-128.20-28.87-132.76-30.76Q-137.33-32.65-143.05-32.65L-143.05-32.65Q-148.78-32.65-153.37-30.76Q-157.96-28.87-161.17-25.31Q-164.38-21.75-166.11-16.64Q-167.84-11.54-167.84-5.11L-167.84-5.11Q-167.84 1.31-166.11 6.41Q-164.38 11.52-161.17 15.05Q-157.96 18.59-153.37 20.48Q-148.78 22.37-143.05 22.37L-143.05 22.37Q-137.33 22.37-132.76 20.48Q-128.20 18.59-125.02 15.05Q-121.83 11.52-120.13 6.41Q-118.43 1.31-118.43-5.11ZM-84.46-44.16L-84.46-44.16Q-83.49-44.16-82.84-44.08Q-82.19-43.99-81.68-43.75Q-81.17-43.51-80.68-43.05Q-80.20-42.59-79.60-41.83L-79.60-41.83L-38.62 10.38Q-38.83 8.49-38.91 6.68Q-38.99 4.88-38.99 3.31L-38.99 3.31L-38.99-44.16L-26.20-44.16L-26.20 33.93L-33.70 33.93Q-35.43 33.93-36.56 33.39Q-37.70 32.85-38.78 31.44L-38.78 31.44L-79.60-20.56Q-79.44-18.83-79.36-17.13Q-79.28-15.43-79.28-14.02L-79.28-14.02L-79.28 33.93L-92.08 33.93L-92.08-44.16L-84.46-44.16ZM34.99-36.81L31.42-29.95Q30.83-28.77 30.05-28.28Q29.26-27.79 28.18-27.79L28.18-27.79Q27.10-27.79 25.75-28.63Q24.40-29.47 22.57-30.49Q20.73-31.52 18.27-32.36Q15.82-33.19 12.47-33.19L12.47-33.19Q9.44-33.19 7.20-32.47Q4.96-31.74 3.42-30.44Q1.88-29.14 1.13-27.34Q0.37-25.53 0.37-23.37L0.37-23.37Q0.37-20.61 1.91-18.78Q3.45-16.94 5.99-15.64Q8.53-14.35 11.77-13.32Q15.01-12.30 18.38-11.14Q21.76-9.97 25.00-8.44Q28.24-6.90 30.77-4.55Q33.31-2.20 34.85 1.20Q36.39 4.61 36.39 9.47L36.39 9.47Q36.39 14.76 34.58 19.37Q32.77 23.99 29.29 27.42Q25.81 30.85 20.78 32.82Q15.76 34.79 9.28 34.79L9.28 34.79Q5.56 34.79 1.94 34.06Q-1.68 33.33-5.00 31.98Q-8.32 30.63-11.21 28.74Q-14.10 26.85-16.37 24.53L-16.37 24.53L-12.16 17.57Q-11.56 16.81-10.72 16.30Q-9.89 15.78-8.86 15.78L-8.86 15.78Q-7.51 15.78-5.95 16.89Q-4.38 18.00-2.25 19.35Q-0.11 20.70 2.78 21.80Q5.66 22.91 9.71 22.91L9.71 22.91Q15.92 22.91 19.33 19.97Q22.73 17.03 22.73 11.52L22.73 11.52Q22.73 8.44 21.19 6.50Q19.65 4.55 17.11 3.23Q14.57 1.91 11.33 0.99Q8.09 0.07 4.75-1.01Q1.40-2.09-1.84-3.60Q-5.08-5.11-7.62-7.54Q-10.16-9.97-11.70-13.62Q-13.24-17.26-13.24-22.61L-13.24-22.61Q-13.24-26.88-11.53-30.93Q-9.83-34.98-6.57-38.11Q-3.30-41.24 1.45-43.13Q6.20-45.02 12.31-45.02L12.31-45.02Q19.22-45.02 25.05-42.86Q30.88-40.70 34.99-36.81L34.99-36.81ZM78.94 22.21L78.94 22.21Q83.15 22.21 86.48 20.81Q89.80 19.40 92.09 16.86Q94.39 14.33 95.60 10.71Q96.82 7.09 96.82 2.61L96.82 2.61L96.82-44.16L111.34-44.16L111.34 2.61Q111.34 9.57 109.10 15.49Q106.86 21.40 102.65 25.69Q98.44 29.99 92.44 32.39Q86.45 34.79 78.94 34.79L78.94 34.79Q71.44 34.79 65.44 32.39Q59.45 29.99 55.26 25.69Q51.08 21.40 48.84 15.49Q46.60 9.57 46.60 2.61L46.60 2.61L46.60-44.16L61.12-44.16L61.12 2.55Q61.12 7.04 62.34 10.65Q63.55 14.27 65.82 16.84Q68.09 19.40 71.41 20.81Q74.73 22.21 78.94 22.21ZM140.66-44.16L140.66 21.94L171.93 21.94L171.93 33.93L126.14 33.93L126.14-44.16L140.66-44.16ZM165.88-44.16L227.50-44.16L227.50-32.22L204.01-32.22L204.01 33.93L189.48 33.93L189.48-32.22L165.88-32.22L165.88-44.16ZM253.09-44.16L253.09 33.93L238.51 33.93L238.51-44.16L253.09-44.16ZM278.26-44.16L278.26-44.16Q279.23-44.16 279.88-44.08Q280.52-43.99 281.04-43.75Q281.55-43.51 282.04-43.05Q282.52-42.59 283.12-41.83L283.12-41.83L324.10 10.38Q323.89 8.49 323.81 6.68Q323.72 4.88 323.72 3.31L323.72 3.31L323.72-44.16L336.52-44.16L336.52 33.93L329.02 33.93Q327.29 33.93 326.15 33.39Q325.02 32.85 323.94 31.44L323.94 31.44L283.12-20.56Q283.28-18.83 283.36-17.13Q283.44-15.43 283.44-14.02L283.44-14.02L283.44 33.93L270.64 33.93L270.64-44.16L278.26-44.16ZM388.15 23.24L388.15 23.24Q393.06 23.24 396.71 22.34Q400.35 21.45 403.64 19.89L403.64 19.89L403.64 5.69L393.87 5.69Q392.47 5.69 391.66 4.90Q390.85 4.12 390.85 2.99L390.85 2.99L390.85-5.22L416.82-5.22L416.82 26.37Q413.85 28.53 410.64 30.12Q407.42 31.71 403.78 32.74Q400.13 33.77 395.98 34.28Q391.82 34.79 387.01 34.79L387.01 34.79Q378.48 34.79 371.30 31.82Q364.12 28.85 358.88 23.56Q353.64 18.27 350.70 10.92Q347.75 3.58 347.75-5.11L347.75-5.11Q347.75-13.92 350.62-21.26Q353.48-28.60 358.74-33.90Q364.01-39.19 371.51-42.10Q379.02-45.02 388.36-45.02L388.36-45.02Q397.92-45.02 404.91-42.19Q411.91-39.35 416.77-34.81L416.77-34.81L412.55-28.23Q411.31-26.23 409.26-26.23L409.26-26.23Q407.96-26.23 406.61-27.09L406.61-27.09Q404.89-28.12 403.08-29.14Q401.27-30.17 399.08-30.93Q396.89-31.68 394.17-32.17Q391.44-32.65 387.88-32.65L387.88-32.65Q382.10-32.65 377.43-30.71Q372.76-28.77 369.46-25.15Q366.17-21.53 364.39-16.45Q362.60-11.38 362.60-5.11L362.60-5.11Q362.60 1.64 364.49 6.90Q366.38 12.17 369.79 15.78Q373.19 19.40 377.89 21.32Q382.58 23.24 388.15 23.24Z"/></g>
</svg>